<svg xmlns="http://www.w3.org/2000/svg" xmlns:xlink="http://www.w3.org/1999/xlink" viewBox="0 0 280 250" preserveAspectRatio="xMidYMid" style="display: block; shape-rendering: auto; background: transparent;" width="280" height="250"><style type="text/css">
  .ld-text text {
    text-anchor: middle;
    dominant-baseline: middle;
    font-size: 36px;
    opacity: 0;
    user-select: none;
    pointer-events: none;
  }
</style>
<g style="transform-origin:140px 125px;transform:scale(1)" class="ld-text">
<g transform="translate(140,125)">
  <g transform="scale(0.4500) translate(0,0)"><g class="path" style="opacity: 1; transform-origin: -182.58px -8.59px; transform: matrix3d(0.91, 0, 0, 0, 0, 0.91, 0, 0, 0, 0, 0.91, 0, 0, 0, 0, 1); animation: 0.46729s linear -0.280374s infinite normal forwards running animate-yu5xkakkrj9; transform-box: view-box;"><path d="M30.43 39.07L17.58-2.88L13.20 39.07L3.63 39.07L13.20-17.18L27.38-17.18L40.55 25.75L53.87-17.18L68.05-17.18L76.02 39.07L60.23 39.07L55.59-1.79L44.61 39.07L30.43 39.07" style="fill: rgb(255, 0, 0);" transform="translate(-222.405,-19.535)"></path></g><g class="path" style="opacity: 1; transform-origin: -116.35px -8.59px; transform: matrix3d(0.91, 0, 0, 0, 0, 0.91, 0, 0, 0, 0, 0.91, 0, 0, 0, 0, 1); animation: 0.46729s linear -0.252336s infinite normal forwards running animate-yu5xkakkrj9; transform-box: view-box;"><path d="M101.37 14.54L101.37 39.07L85.86 39.07L85.86-17.18L126.25-17.18L126.25-9.99L101.37-9.99L101.37 7.39L120.59 7.39L120.59 14.54L101.37 14.54" style="fill: rgb(251, 176, 52);" transform="translate(-222.405,-19.535)"></path></g><g class="path" style="opacity: 1; transform-origin: -80.32px -8.59px; transform: matrix3d(0.91, 0, 0, 0, 0, 0.91, 0, 0, 0, 0, 0.91, 0, 0, 0, 0, 1); animation: 0.46729s linear -0.224299s infinite normal forwards running animate-yu5xkakkrj9; transform-box: view-box;"><path d="M149.84-17.18L149.84 39.07L134.34 39.07L134.34-17.18L149.84-17.18" style="fill: rgb(255, 221, 0);" transform="translate(-222.405,-19.535)"></path></g><g class="path" style="opacity: 1; transform-origin: -34.04px -8.61px; transform: matrix3d(0.91, 0, 0, 0, 0, 0.91, 0, 0, 0, 0, 0.91, 0, 0, 0, 0, 1); animation: 0.46729s linear -0.196262s infinite normal forwards running animate-yu5xkakkrj9; transform-box: view-box;"><path d="M178.09 17.08L178.09 39.07L162.58 39.07L162.58-17.18L178.09-17.18L178.09 9.62Q185.27 4.11 191.50-2.61Q197.73-9.33 202.23-17.22L202.23-17.22L212.81-17.22Q208.67-10.15 203.32-4.02Q197.97 2.12 191.68 7.35L191.68 7.35L214.14 39.07L197.97 39.07L181.05 15.16Q180.31 15.67 179.59 16.14Q178.87 16.61 178.09 17.08L178.09 17.08" style="fill: rgb(193, 216, 47);" transform="translate(-222.405,-19.535)"></path></g><g class="path" style="opacity: 1; transform-origin: 23.2px -8.59px; transform: matrix3d(0.91, 0, 0, 0, 0, 0.91, 0, 0, 0, 0, 0.91, 0, 0, 0, 0, 1); animation: 0.46729s linear -0.168224s infinite normal forwards running animate-yu5xkakkrj9; transform-box: view-box;"><path d="M235.90 18.05L235.90 39.07L220.39 39.07L220.39-17.18L248.05-17.18Q251.95-17.18 255.59-16.26Q259.22-15.34 262.01-13.37Q264.80-11.40 266.46-8.27Q268.13-5.15 268.13-0.70L268.13-0.70Q268.13 2.78 266.66 5.85Q265.20 8.91 262.75 11.32Q260.31 13.72 257.15 15.30Q253.98 16.88 250.59 17.39L250.59 17.39Q252.11 19.97 253.77 22.27Q255.43 24.58 257.13 26.59Q258.83 28.60 260.51 30.30Q262.19 32 263.71 33.41L263.71 33.41Q267.30 36.69 270.82 39.07L270.82 39.07L251.48 39.07Q249.14 36.84 247.03 33.72L247.03 33.72Q245.23 31.06 243.42 27.14Q241.60 23.21 240.63 18.05L240.63 18.05L235.90 18.05 zM252.38-0.70L252.38-0.70Q252.38-6.36 249.63-9.02Q246.88-11.67 241.37-11.67L241.37-11.67L235.90-11.67L235.90 12.74L241.37 12.74Q244.30 12.74 246.39 11.63Q248.48 10.52 249.80 8.66Q251.13 6.80 251.76 4.38Q252.38 1.96 252.38-0.70" style="fill: rgb(0, 164, 228);" transform="translate(-222.405,-19.535)"></path></g><g class="path" style="opacity: 1; transform-origin: 63.48px -8.59px; transform: matrix3d(0.91, 0, 0, 0, 0, 0.91, 0, 0, 0, 0, 0.91, 0, 0, 0, 0, 1); animation: 0.46729s linear -0.140187s infinite normal forwards running animate-yu5xkakkrj9; transform-box: view-box;"><path d="M293.63-17.18L293.63 39.07L278.13 39.07L278.13-17.18L293.63-17.18" style="fill: rgb(138, 121, 103);" transform="translate(-222.405,-19.535)"></path></g><g class="path" style="opacity: 1; transform-origin: 110.41px -3.22px; transform: matrix3d(0.91, 0, 0, 0, 0, 0.91, 0, 0, 0, 0, 0.91, 0, 0, 0, 0, 1); animation: 0.46729s linear -0.11215s infinite normal forwards running animate-yu5xkakkrj9; transform-box: view-box;"><path d="M359.92 12.16L359.92 12.16L359.92 12.90Q359.84 16.18 359.24 19.69Q358.63 23.21 357.54 26.73Q356.45 30.24 354.92 33.68Q353.40 37.12 351.50 40.26Q349.61 43.41 347.42 46.16Q345.23 48.91 342.81 51.02L342.81 51.02L336.99 47.66Q338.36 45.36 339.47 42.64Q340.59 39.93 341.48 36.96Q342.38 33.99 343.03 30.87Q343.67 27.74 344.10 24.66Q344.53 21.57 344.75 18.58Q344.96 15.59 344.96 12.90L344.96 12.90Q344.96 10.79 344.94 8.11Q344.92 5.44 344.63 2.66Q344.34-0.11 343.67-2.75Q343.01-5.38 341.70-7.45Q340.39-9.52 338.34-10.77Q336.29-12.02 333.24-12.02L333.24-12.02Q330.55-12.02 328.61-11.11Q326.68-10.19 325.33-8.64Q323.98-7.10 323.18-5.07Q322.38-3.04 321.93-0.79Q321.48 1.45 321.35 3.74Q321.21 6.02 321.21 8.05L321.21 8.05L321.21 18.95L338.05 18.95L338.05 25.40L321.21 25.40L321.21 39.07L305.70 39.07L305.70 10.48Q305.70 4.34 307.66-0.93Q309.61-6.20 313.18-10.09Q316.76-13.98 321.78-16.18Q326.80-18.39 332.97-18.39L332.97-18.39Q337.15-18.39 340.80-17.20Q344.45-16.01 347.46-13.92Q350.47-11.83 352.83-8.96Q355.20-6.09 356.78-2.69Q358.36 0.71 359.18 4.50Q360 8.29 359.92 12.16" style="fill: rgb(106, 115, 123);" transform="translate(-222.405,-19.535)"></path></g><g class="path" style="opacity: 1; transform-origin: 151.66px 13.7px; transform: matrix3d(0.91, 0, 0, 0, 0, 0.91, 0, 0, 0, 0, 0.91, 0, 0, 0, 0, 1); animation: 0.46729s linear -0.0841121s infinite normal forwards running animate-yu5xkakkrj9; transform-box: view-box;"><path d="M381.17 33.21L381.17 33.21Q381.17 34.69 380.63 36Q380.08 37.31 379.10 38.27Q378.13 39.23 376.84 39.79Q375.55 40.36 374.06 40.36L374.06 40.36Q372.58 40.36 371.29 39.79Q370 39.23 369.02 38.27Q368.05 37.31 367.50 36Q366.95 34.69 366.95 33.21L366.95 33.21Q366.95 31.77 367.50 30.46Q368.05 29.15 369.02 28.19Q370 27.23 371.29 26.67Q372.58 26.10 374.06 26.10L374.06 26.10Q375.55 26.10 376.84 26.67Q378.13 27.23 379.10 28.19Q380.08 29.15 380.63 30.46Q381.17 31.77 381.17 33.21" style="fill: rgb(255, 0, 0);" transform="translate(-222.405,-19.535)"></path></g><g class="path" style="opacity: 1; transform-origin: 174.08px 13.7px; transform: matrix3d(0.91, 0, 0, 0, 0, 0.91, 0, 0, 0, 0, 0.91, 0, 0, 0, 0, 1); animation: 0.46729s linear -0.0560748s infinite normal forwards running animate-yu5xkakkrj9; transform-box: view-box;"><path d="M403.59 33.21L403.59 33.21Q403.59 34.69 403.05 36Q402.50 37.31 401.52 38.27Q400.55 39.23 399.26 39.79Q397.97 40.36 396.48 40.36L396.48 40.36Q395 40.36 393.71 39.79Q392.42 39.23 391.45 38.27Q390.47 37.31 389.92 36Q389.38 34.69 389.38 33.21L389.38 33.21Q389.38 31.77 389.92 30.46Q390.47 29.15 391.45 28.19Q392.42 27.23 393.71 26.67Q395 26.10 396.48 26.10L396.48 26.10Q397.97 26.10 399.26 26.67Q400.55 27.23 401.52 28.19Q402.50 29.15 403.05 30.46Q403.59 31.77 403.59 33.21" style="fill: rgb(251, 176, 52);" transform="translate(-222.405,-19.535)"></path></g><g class="path" style="opacity: 1; transform-origin: 196.5px 13.7px; transform: matrix3d(0.91, 0, 0, 0, 0, 0.91, 0, 0, 0, 0, 0.91, 0, 0, 0, 0, 1); animation: 0.46729s linear -0.0280374s infinite normal forwards running animate-yu5xkakkrj9; transform-box: view-box;"><path d="M426.02 33.21L426.02 33.21Q426.02 34.69 425.47 36Q424.92 37.31 423.95 38.27Q422.97 39.23 421.68 39.79Q420.39 40.36 418.91 40.36L418.91 40.36Q417.42 40.36 416.13 39.79Q414.84 39.23 413.87 38.27Q412.89 37.31 412.34 36Q411.80 34.69 411.80 33.21L411.80 33.21Q411.80 31.77 412.34 30.46Q412.89 29.15 413.87 28.19Q414.84 27.23 416.13 26.67Q417.42 26.10 418.91 26.10L418.91 26.10Q420.39 26.10 421.68 26.67Q422.97 27.23 423.95 28.19Q424.92 29.15 425.47 30.46Q426.02 31.77 426.02 33.21" style="fill: rgb(255, 221, 0);" transform="translate(-222.405,-19.535)"></path></g><g class="path" style="opacity: 1; transform-origin: 218.93px 13.7px; transform: matrix3d(0.91, 0, 0, 0, 0, 0.91, 0, 0, 0, 0, 0.91, 0, 0, 0, 0, 1); animation: 0.46729s linear 0s infinite normal forwards running animate-yu5xkakkrj9; transform-box: view-box;"><path d="M448.44 33.21L448.44 33.21Q448.44 34.69 447.89 36Q447.34 37.31 446.37 38.27Q445.39 39.23 444.10 39.79Q442.81 40.36 441.33 40.36L441.33 40.36Q439.84 40.36 438.55 39.79Q437.27 39.23 436.29 38.27Q435.31 37.31 434.77 36Q434.22 34.69 434.22 33.21L434.22 33.21Q434.22 31.77 434.77 30.46Q435.31 29.15 436.29 28.19Q437.27 27.23 438.55 26.67Q439.84 26.10 441.33 26.10L441.33 26.10Q442.81 26.10 444.10 26.67Q445.39 27.23 446.37 28.19Q447.34 29.15 447.89 30.46Q448.44 31.77 448.44 33.21" style="fill: rgb(193, 216, 47);" transform="translate(-222.405,-19.535)"></path></g></g><text dy="0.35em" fill="#ff0000" font-family="Aclonica" font-size="36">MFIKRIA....</text>
</g>
</g><style type="text/css">@keyframes animate-yu5xkakkrj9 { 0.00% {transform: translate(0.00px,0.00px) rotate(0.00deg) scale(0.91, 0.91) skew(0deg, 0.00deg) ;opacity: 1.00;}4.00% {transform: translate(0.00px,0.00px) rotate(0.00deg) scale(0.91, 0.91) ;}8.00% {animation-timing-function: cubic-bezier(0.69,0.60,0.35,0.27);transform: translate(0.00px,0.00px) rotate(0.00deg) scale(0.91, 0.91) ;}14.00% {transform: translate(0.00px,0.00px) rotate(0.00deg) scale(0.93, 0.93) ;}18.00% {transform: translate(0.00px,0.00px) rotate(0.00deg) scale(0.94, 0.94) ;}22.00% {animation-timing-function: cubic-bezier(0.67,0.66,0.34,0.33);transform: translate(0.00px,0.00px) rotate(0.00deg) scale(0.96, 0.96) ;}26.00% {transform: translate(0.00px,0.00px) rotate(0.00deg) scale(0.97, 0.97) ;}30.00% {transform: translate(0.00px,0.00px) rotate(0.00deg) scale(0.99, 0.99) ;}34.00% {animation-timing-function: cubic-bezier(0.65,0.71,0.32,0.38);transform: translate(0.00px,0.00px) rotate(0.00deg) scale(1.01, 1.01) ;}40.00% {animation-timing-function: cubic-bezier(0.64,0.74,0.31,0.41);transform: translate(0.00px,0.00px) rotate(0.00deg) scale(1.02, 1.02) ;}46.00% {animation-timing-function: cubic-bezier(0.60,0.91,0.23,0.63);transform: translate(0.00px,0.00px) rotate(0.00deg) scale(1.03, 1.03) ;}50.00% {transform: translate(0.00px,0.00px) rotate(0.00deg) scale(1.03, 1.03) ;}54.00% {transform: translate(0.00px,0.00px) rotate(0.00deg) scale(1.03, 1.03) ;}58.00% {animation-timing-function: cubic-bezier(0.69,0.60,0.35,0.27);transform: translate(0.00px,0.00px) rotate(0.00deg) scale(1.03, 1.03) ;}64.00% {transform: translate(0.00px,0.00px) rotate(0.00deg) scale(1.01, 1.01) ;}68.00% {transform: translate(0.00px,0.00px) rotate(0.00deg) scale(1.00, 1.00) ;}72.00% {animation-timing-function: cubic-bezier(0.67,0.66,0.34,0.33);transform: translate(0.00px,0.00px) rotate(0.00deg) scale(0.98, 0.98) ;}76.00% {animation-timing-function: cubic-bezier(0.66,0.68,0.33,0.35);transform: translate(0.00px,0.00px) rotate(0.00deg) scale(0.97, 0.97) ;}82.00% {animation-timing-function: cubic-bezier(0.65,0.71,0.32,0.38);transform: translate(0.00px,0.00px) rotate(0.00deg) scale(0.94, 0.94) ;}88.00% {animation-timing-function: cubic-bezier(0.65,0.73,0.31,0.40);transform: translate(0.00px,0.00px) rotate(0.00deg) scale(0.92, 0.92) ;}94.00% {animation-timing-function: cubic-bezier(0.63,0.80,0.28,0.48);transform: translate(0.00px,0.00px) rotate(0.00deg) scale(0.91, 0.91) ;}100.00% {animation-timing-function: cubic-bezier(0.63,0.80,0.28,0.48);transform: translate(0.00px,0.00px) rotate(0.00deg) scale(0.91, 0.91) ;} }</style><!-- [ldio] generated by https://loading.io --></svg>